# xmcd
#
# Track frame offsets: 
#        150
#        7135
#        13499
#        32766
#        56868
#        81520
#        103541
#        126085
#        168708
#        189338
#        197885
#        246306
#        278419
#        317006
#        328672
#
# Disc length: 4665 seconds
#
# Revision: 0
# Processed by: cddbd v1.5.2PL0 Copyright (c) Steve Scherf et al.
# Submitted via: ExactAudioCopy v1.0b6
#
DISCID=db12370f
DTITLE=Rance Allen Group - The Live Experience II (2011)
DYEAR=2011
DGENRE=Gospel
TTITLE0=Intro
TTITLE1=We Care A Lot
TTITLE2=Let The Music Get Down In Your Soul
TTITLE3=Livin' For Jesus [feat. Shirley Caesar]
TTITLE4=Holy One [feat. Called II Worship]
TTITLE5=Angel
TTITLE6=It's Your Time [feat. Vanessa Bell Armstrong]
TTITLE7=You That I Trust [feat. Paul Porter]
TTITLE8=Love Train
TTITLE9=He Delivered Me
TTITLE10=Hear My Voice
TTITLE11=What He's Done For Me
TTITLE12=United We Stand
TTITLE13=Smile
TTITLE14=Feel Like Going On
EXTD=
EXTT0=
EXTT1=
EXTT2=
EXTT3=
EXTT4=
EXTT5=
EXTT6=
EXTT7=
EXTT8=
EXTT9=
EXTT10=
EXTT11=
EXTT12=
EXTT13=
EXTT14=
PLAYORDER=
